<svg viewBox="0 0 64 64" fill="none"
	xmlns="http://www.w3.org/2000/svg">
	<path d="M50.1935 34.8107L57.8742 23.1767C57.9635 23.0295 58.1123 23 58.2612 23H60.7023C60.8809 23 61 23.1178 61 23.2945V43.7055C61 43.8822 60.8809 44 60.7023 44H56.2368C56.0582 44 56 43.8822 56 43.7055L55.9391 39.5L56 35C56 34.7349 55.7307 34.6634 55.5819 34.8696L50.1935 42.6452C50.0744 42.8219 49.8958 42.8219 49.7767 42.6452L44.4181 34.899C44.2693 34.6928 44 34.7518 44 35.0168V43.7055C44 43.8822 43.9418 44 43.7632 44H39.2977C39.1191 44 39 43.8822 39 43.7055V23.2945C39 23.1178 39.1191 23 39.2977 23H41.7388C41.8877 23 42.0365 23.0295 42.1258 23.1767L49.7767 34.8107C49.8958 34.9874 50.0744 34.9874 50.1935 34.8107Z" fill="black"/>
	<path d="M31.3408 32H35.6976C35.879 32 36 32.1209 36 32.3024V35.6976C36 35.8791 35.879 36 35.6976 36H31.3408C31.1594 36 31 36.1209 31 36.3024V40.6976C31 40.879 30.9175 41 30.7361 41H27.1048C26.9233 41 26.9043 40.879 26.9043 40.6976V36.3024C26.9043 36.1209 26.6814 36 26.5 36H22.3024C22.121 36 22 35.8791 22 35.6976V32.3024C22 32.1209 22.121 32 22.3024 32H26.5957C26.7771 32 27 31.8791 27 31.6976V27.3024C27 27.121 27.019 27 27.2004 27H30.7361C30.9175 27 31 27.121 31 27.3024L31.0384 31.6976C31.0384 31.8791 31.1594 32 31.3408 32Z" fill="#46A758"/>
	<path d="M18.7568 38.3783C18.9106 38.2184 19.0645 38.2184 19.1876 38.3783L21.8958 41.4492C22.0189 41.5772 22.0497 41.7691 21.8958 41.8971C20.234 43.4965 18.1413 45 14.3867 45C8.01632 45 3 39.7538 3 33.452C3 27.1822 8.01632 22 14.3867 22C17.5565 22 20.1724 23.4715 21.8958 25.0709C22.0497 25.1989 22.0189 25.3908 21.8958 25.5188L19.1876 28.5897C19.0645 28.7497 18.9106 28.7497 18.7568 28.5897C17.9566 27.5981 16.3563 26.7983 14.3867 26.7983C11.7401 26.7983 8.23174 28.9096 8.23174 33.452C8.23174 38.0264 11.7401 40.2017 14.3867 40.2017C16.3563 40.2017 17.9566 39.37 18.7568 38.3783Z" fill="black"/>
</svg>
